<?xml version="1.0" standalone="no"?>
<!DOCTYPE svg PUBLIC "-//W3C//DTD SVG 20010904//EN"
 "http://www.w3.org/TR/2001/REC-SVG-20010904/DTD/svg10.dtd">
<svg version="1.0" xmlns="http://www.w3.org/2000/svg"
 width="640.000000pt" height="640.000000pt" viewBox="0 0 640.000000 640.000000"
 preserveAspectRatio="xMidYMid meet">
<metadata>
Created by potrace 1.11, written by Peter Selinger 2001-2013
</metadata>
<g transform="translate(0.000000,640.000000) scale(0.100000,-0.100000)"
fill="#000000" stroke="none">
<path d="M0 4466 c0 -1804 1 -1934 17 -1947 9 -8 14 -9 10 -2 -8 12 30 30 40
19 4 -3 -1 -6 -9 -6 -11 0 -14 -6 -11 -20 3 -11 12 -20 19 -20 8 0 17 -7 20
-15 4 -8 14 -15 23 -15 14 0 14 -2 1 -11 -12 -8 -12 -9 5 -7 11 1 31 -5 45
-15 13 -9 21 -17 16 -17 -5 0 1 -8 12 -19 12 -10 22 -23 22 -29 0 -15 28 -23
36 -10 4 6 3 8 -3 5 -6 -4 -13 0 -17 8 -3 8 0 17 6 21 7 4 8 3 4 -4 -4 -7 -1
-12 8 -12 14 0 20 -18 19 -57 -1 -9 5 -10 16 -3 13 6 18 5 18 -6 0 -7 -8 -14
-18 -14 -10 0 -21 -5 -25 -12 -4 -6 -3 -8 3 -5 17 11 103 15 97 5 -3 -5 -13
-7 -21 -4 -8 3 -11 1 -8 -4 3 -6 12 -10 19 -10 16 0 17 -32 2 -42 -7 -5 -4 -8
7 -8 9 0 17 -7 17 -15 0 -8 5 -16 10 -16 6 -1 16 -2 23 -3 6 -1 22 1 34 6 14
4 23 4 23 -2 0 -6 -8 -10 -17 -11 -14 0 -15 -2 -3 -6 8 -3 18 -12 23 -19 4 -7
14 -11 22 -8 8 4 15 1 15 -5 0 -6 6 -11 13 -11 7 0 31 -16 52 -36 21 -19 44
-38 50 -42 19 -13 37 -64 25 -72 -6 -4 -12 -23 -13 -44 -2 -30 -4 -33 -14 -20
-10 14 -12 13 -18 -5 -4 -12 -15 -21 -26 -21 -11 0 -18 4 -15 8 2 4 -5 9 -17
9 -12 1 -17 -1 -11 -5 7 -4 8 -15 3 -27 -4 -11 -8 -14 -8 -7 -1 7 -6 10 -12 6
-7 -4 -26 -7 -43 -6 -31 1 -31 1 -7 -12 20 -11 21 -14 7 -19 -10 -4 -15 -3
-11 3 5 9 -8 12 -31 9 -4 0 -11 5 -16 13 -6 9 -7 6 -3 -9 6 -21 3 -22 -25 -19
-20 2 -34 -2 -40 -13 -6 -11 -9 -12 -10 -3 0 8 -9 12 -24 10 -13 -1 -31 4 -41
12 -17 14 -17 13 -7 -6 9 -17 8 -20 -8 -19 -10 1 -27 8 -37 16 -16 13 -17 13
-4 -3 12 -16 11 -18 -2 -18 -8 0 -18 -6 -20 -12 -3 -8 -6 -9 -6 -2 -1 6 -12 9
-26 6 -15 -2 -22 -9 -18 -16 3 -6 -3 -3 -14 7 -17 15 -21 16 -26 3 -4 -9 -14
-12 -25 -9 -11 2 -23 0 -26 -6 -4 -6 -13 -11 -19 -11 -7 0 -6 4 3 10 8 5 10
10 4 10 -33 0 -35 -27 -33 -404 0 -211 5 -378 10 -382 5 -3 9 2 9 10 0 9 5 16
10 16 7 0 7 -6 0 -20 -6 -11 -15 -20 -20 -20 -6 0 -10 -9 -10 -20 0 -11 5 -20
11 -20 6 0 9 7 5 15 -6 17 9 21 19 5 4 -6 16 -8 28 -4 22 6 22 6 2 -9 -15 -11
-22 -12 -27 -4 -4 7 -7 -1 -6 -17 2 -15 8 -31 15 -33 19 -7 16 -23 -4 -24 -11
0 -13 -3 -6 -6 10 -3 10 -10 2 -25 -8 -15 -8 -19 0 -14 16 10 14 -9 -2 -23 -8
-6 -18 -7 -22 -3 -5 4 -5 1 -1 -6 6 -11 11 -11 23 0 9 7 24 12 34 10 14 -2 17
1 13 12 -3 9 -10 14 -14 11 -14 -9 -23 16 -11 28 8 8 11 8 11 -2 0 -7 5 -9 12
-5 6 4 8 3 5 -2 -3 -6 -2 -16 3 -24 5 -8 5 -19 0 -25 -4 -6 -2 -15 6 -23 12
-11 18 -8 39 14 19 21 22 30 14 40 -6 8 -16 11 -21 8 -5 -3 -19 4 -30 16 -19
21 -19 22 -2 18 11 -2 18 -9 17 -16 -2 -6 4 -9 12 -6 13 5 12 8 -1 21 -8 9
-12 18 -9 21 3 4 11 0 16 -8 9 -12 10 -12 5 3 -4 11 0 17 11 17 15 0 15 2 -2
13 -11 9 -15 19 -10 27 6 10 9 9 16 -1 6 -10 9 -10 9 -2 0 6 -5 15 -10 18 -8
5 -8 11 0 20 8 10 8 15 -1 21 -8 5 -9 3 -4 -6 5 -9 4 -11 -3 -6 -17 10 -15 29
6 46 15 14 19 13 34 -2 9 -9 13 -20 10 -24 -4 -4 -1 -4 6 0 7 4 10 11 7 16 -3
4 1 11 7 14 7 3 3 3 -9 0 -13 -3 -23 -2 -23 3 0 5 10 10 22 10 13 1 28 10 35
19 12 16 14 16 33 -6 11 -13 20 -18 20 -12 0 6 -4 14 -10 17 -6 4 -5 11 3 19
14 16 31 10 23 -9 -2 -7 2 -16 10 -19 9 -3 16 4 20 20 5 19 9 22 15 13 5 -8 3
-17 -4 -21 -9 -5 -8 -10 2 -20 8 -7 11 -8 8 -2 -3 6 0 11 7 11 8 0 13 -10 12
-24 -1 -16 -6 -21 -18 -17 -9 2 -19 0 -23 -5 -3 -6 0 -8 8 -5 8 3 18 1 22 -5
3 -6 11 -11 16 -11 6 0 8 4 5 8 -2 4 -1 14 4 22 7 11 11 11 24 1 10 -9 16 -10
16 -3 0 6 7 9 15 6 8 -4 15 -1 15 5 0 6 -5 11 -12 11 -18 0 -3 10 22 15 18 3
21 2 12 -7 -8 -8 -7 -15 6 -25 16 -14 16 -14 0 -9 -10 3 -18 1 -18 -5 0 -6 -7
-9 -15 -5 -17 6 -18 0 -5 -29 7 -16 9 -17 9 -3 1 9 15 23 31 32 17 8 28 10 25
5 -11 -16 7 -9 21 9 7 9 14 12 14 5 0 -6 -5 -15 -10 -18 -6 -4 -7 -11 -4 -17
4 -7 2 -8 -4 -4 -7 4 -12 2 -12 -3 0 -14 17 -14 25 -1 3 5 12 7 20 3 17 -6 21
12 5 22 -5 3 -9 14 -9 23 1 15 2 15 6 -1 2 -9 9 -14 15 -11 7 4 8 2 4 -4 -4
-7 -2 -12 4 -12 7 0 8 -5 3 -12 -4 -7 -8 -17 -8 -22 0 -5 -6 -11 -14 -14 -9
-3 -11 0 -6 9 5 8 4 10 0 6 -5 -4 -10 -14 -11 -22 -3 -21 32 -1 47 26 6 11 13
18 16 15 3 -3 1 -11 -5 -19 -7 -8 -8 -18 -1 -27 8 -13 10 -13 18 -1 5 8 8 19
7 25 -2 6 -1 8 1 4 2 -4 12 -5 21 -2 15 5 15 4 -1 -6 -25 -16 0 -39 39 -34 26
3 26 3 5 -4 -30 -9 -40 -32 -14 -32 15 0 16 2 3 11 -13 9 -13 10 0 6 8 -2 15
-12 15 -23 1 -10 6 -18 13 -16 7 1 18 -9 24 -23 6 -14 17 -25 23 -25 7 0 20
-10 28 -23 16 -22 16 -21 11 13 l-5 35 14 -30 c17 -36 13 -45 -19 -45 -13 0
-24 -5 -24 -11 0 -5 4 -8 9 -4 6 3 15 -4 21 -15 6 -11 8 -20 4 -20 -3 0 -1 -7
6 -15 20 -25 23 -10 5 25 -17 32 -17 33 5 27 16 -4 20 -2 16 9 -3 8 -1 14 4
14 6 0 10 -5 10 -12 0 -6 3 -8 7 -4 5 4 -1 14 -11 22 -11 7 -17 17 -13 21 4 3
17 -2 29 -13 l23 -19 -19 22 c-18 22 -18 23 0 50 23 36 25 50 8 57 -8 3 -14
11 -14 18 0 10 3 9 9 -1 8 -12 12 -12 25 -2 9 7 13 18 9 25 -4 8 -3 8 6 0 7
-6 13 -24 14 -39 3 -34 19 -42 38 -18 13 16 12 17 -4 4 -9 -8 -20 -11 -24 -8
-3 4 6 12 20 18 15 7 24 16 21 20 -3 5 2 6 11 2 9 -3 13 -9 8 -12 -16 -10 -23
-40 -11 -47 7 -4 8 -3 4 4 -4 7 -3 12 3 12 5 0 14 -7 19 -16 8 -15 10 -15 15
0 4 9 12 16 18 16 8 0 7 -5 -2 -17 -8 -10 -9 -14 -2 -10 14 9 27 -9 17 -24 -5
-8 -9 -8 -14 1 -5 8 -9 7 -13 -4 -4 -9 -3 -15 1 -15 4 1 12 0 17 -1 6 -1 17
-3 25 -4 9 0 14 -9 12 -22 -2 -14 6 -24 25 -33 l28 -13 -23 25 c-17 18 -20 27
-11 32 8 5 10 4 5 -3 -7 -11 6 -17 27 -13 5 1 6 -3 2 -9 -9 -14 18 -13 35 2
12 11 12 10 2 -3 -6 -9 -8 -20 -4 -24 4 -5 2 -5 -5 -1 -6 3 -14 2 -18 -4 -6
-10 7 -14 34 -11 7 2 10 -3 6 -9 -8 -13 14 -42 26 -34 5 3 9 -5 9 -17 0 -20
-2 -21 -18 -8 -10 8 -6 2 9 -12 19 -19 24 -30 17 -37 -8 -8 -4 -9 13 -6 21 5
22 4 7 -6 -10 -6 -18 -16 -18 -23 0 -9 2 -9 8 0 5 8 13 9 22 3 8 -6 11 -10 5
-10 -11 0 -12 -56 -2 -67 4 -3 7 1 7 10 0 10 4 17 10 17 5 0 7 -7 4 -15 -4 -9
0 -15 7 -16 8 0 5 -4 -6 -9 -11 -5 -14 -9 -7 -9 6 -1 12 -10 12 -22 0 -13 4
-18 13 -13 7 5 6 1 -3 -10 -16 -21 -23 -49 -9 -40 5 3 7 10 4 15 -10 14 11 10
24 -5 9 -11 9 -15 -1 -19 -8 -4 -7 -6 4 -6 11 -1 17 -9 16 -23 -2 -42 2 -59
11 -53 5 3 12 1 16 -5 3 -5 1 -10 -5 -10 -6 0 -8 -5 -5 -11 4 -6 14 -8 24 -5
13 5 13 4 -2 -8 -16 -12 -16 -14 -2 -20 9 -3 13 -10 10 -16 -3 -5 -2 -10 4
-10 5 0 8 -8 7 -17 -2 -10 4 -25 13 -33 9 -8 17 -26 18 -40 2 -14 5 -43 6 -65
2 -23 9 -39 15 -38 6 2 9 -4 5 -12 -5 -14 16 -15 163 -13 132 2 168 6 172 17
3 8 0 11 -7 7 -7 -5 -11 3 -11 21 0 22 -2 25 -10 13 -8 -11 -9 -8 -4 13 4 18
2 27 -6 27 -8 0 -11 11 -8 30 3 21 1 29 -7 26 -8 -3 -11 5 -8 22 7 41 6 53 -9
102 -12 43 -26 63 -38 55 -3 -2 -7 7 -8 21 -1 21 2 23 28 20 16 -2 27 1 24 5
-3 5 -17 9 -32 9 -21 0 -24 2 -12 10 18 11 16 12 -30 15 -19 1 -38 -3 -42 -9
-11 -16 -7 35 4 66 6 15 14 25 19 22 12 -7 56 38 56 58 0 10 -4 15 -8 12 -4
-2 -11 0 -14 6 -4 6 -3 10 2 9 4 -1 15 -1 23 0 31 3 -9 17 -44 16 -19 -1 -33
2 -30 7 3 4 0 8 -5 8 -13 0 -15 -56 -3 -64 5 -3 8 5 8 17 -1 21 23 33 25 12 0
-5 10 -16 22 -23 21 -13 21 -13 -5 -9 -17 3 -29 -1 -32 -10 -4 -11 -1 -13 15
-8 15 5 19 4 15 -4 -4 -6 -14 -11 -22 -11 -8 0 -19 -10 -25 -23 -6 -13 -20
-29 -31 -36 -11 -7 -18 -9 -15 -4 3 5 2 15 -3 23 -7 12 -11 12 -27 -1 -16 -13
-17 -12 -5 3 17 21 52 20 45 -2 -4 -13 -4 -13 6 0 7 11 6 19 -4 29 -12 12 -17
12 -39 -2 -21 -14 -24 -15 -20 -2 4 8 9 15 13 15 4 0 7 9 8 20 2 22 -13 27
-20 8 -2 -7 -3 -5 -2 4 2 10 -1 21 -6 24 -5 3 -7 9 -4 14 3 5 -3 11 -12 13
-11 3 -6 5 12 7 l30 2 -29 12 c-16 7 -24 16 -18 20 12 7 4 46 -9 46 -5 0 -9 5
-9 11 0 5 5 7 10 4 6 -3 10 -1 10 5 0 6 -10 15 -22 20 -18 7 -19 9 -6 9 10 1
23 -8 30 -18 12 -19 13 -19 33 5 20 24 22 24 36 8 12 -16 12 -17 -3 -11 -23 8
-23 2 0 -21 10 -10 24 -16 30 -14 7 2 12 -1 12 -7 0 -10 -14 -15 -32 -12 -17
2 -7 -10 15 -18 14 -5 25 -4 30 3 6 7 7 4 3 -7 -8 -24 39 -43 62 -25 10 8 13
8 9 2 -4 -7 -1 -14 7 -17 10 -4 13 -17 10 -39 -3 -28 -2 -30 6 -11 5 13 15 23
22 23 9 0 10 3 2 8 -12 8 -12 40 0 60 4 7 5 16 2 19 -3 3 1 21 9 40 18 43 19
83 3 83 -9 0 -8 3 2 9 8 6 17 8 20 6 4 -2 7 2 7 10 0 8 -3 15 -7 15 -4 0 -6
14 -5 30 1 17 -2 33 -6 36 -5 2 -6 11 -3 18 7 17 61 14 77 -5 10 -11 9 -11 -5
0 -12 9 -18 10 -18 3 0 -6 9 -16 19 -21 17 -9 19 -7 17 18 -2 22 2 27 13 23
10 -4 12 -1 6 9 -7 12 -5 12 6 1 12 -11 12 -14 -1 -22 -8 -5 -10 -10 -4 -10 5
0 16 6 23 13 7 6 12 8 11 2 -2 -5 -2 -18 -1 -29 1 -15 4 -16 16 -6 10 8 15 9
15 2 0 -7 7 -9 17 -5 11 4 14 3 9 -6 -5 -7 -14 -10 -22 -7 -8 3 -14 2 -14 -3
0 -14 39 -20 44 -7 2 6 5 -2 6 -19 2 -30 2 -30 10 -5 8 24 8 24 9 3 1 -13 6
-23 12 -23 5 0 7 5 3 12 -4 7 -3 8 5 4 9 -6 9 -11 1 -21 -9 -11 -7 -12 9 -8
12 3 21 1 21 -6 0 -6 -6 -11 -12 -11 -10 0 -10 -2 0 -8 8 -5 10 -16 5 -28 -7
-18 -6 -18 11 -1 22 21 35 14 16 -8 -11 -13 -11 -18 0 -28 10 -10 12 -8 6 7
-5 16 -4 17 9 6 8 -7 12 -16 9 -21 -3 -5 -2 -9 3 -8 26 5 31 -2 23 -32 -8 -27
-7 -29 7 -17 14 11 15 10 9 -12 -6 -21 -5 -22 4 -7 6 9 16 17 23 17 8 0 7 -3
-2 -9 -17 -11 -7 -43 12 -35 10 4 13 -7 11 -44 -1 -28 -4 -54 -7 -59 -3 -5 3
-9 14 -9 11 0 18 5 16 11 -3 5 2 16 9 23 24 22 17 -15 -7 -39 -17 -17 -17 -20
-3 -17 9 2 19 -3 22 -11 3 -9 0 -11 -9 -6 -8 5 -5 -1 5 -13 22 -26 28 -28 20
-7 -4 8 -2 15 4 15 12 0 24 -29 16 -41 -3 -5 -2 -9 3 -9 4 0 21 -11 37 -25 16
-14 24 -25 18 -25 -21 0 -13 -29 18 -60 18 -19 30 -25 30 -16 0 7 -7 17 -16
20 -8 3 -12 10 -9 16 13 21 38 -20 31 -51 -3 -18 -2 -28 4 -24 5 3 14 -4 20
-15 15 -27 29 -25 26 4 -2 14 1 30 5 38 6 9 9 5 9 -12 0 -14 9 -31 20 -38 18
-11 22 -10 31 10 9 22 9 22 4 -2 -2 -14 -5 -31 -5 -39 0 -11 -3 -11 -15 -1
-19 16 -20 3 -1 -16 17 -16 30 -19 21 -4 -12 19 7 10 27 -12 14 -17 18 -18 14
-6 -3 10 0 20 6 24 7 4 8 3 4 -4 -4 -7 5 -23 19 -38 14 -14 24 -28 22 -31 -3
-2 -11 3 -20 11 -13 13 -17 13 -33 -6 -11 -12 -14 -18 -8 -15 7 4 14 1 17 -7
4 -10 -1 -12 -16 -9 -20 4 -20 3 -4 -7 9 -6 15 -15 12 -21 -11 -17 6 -31 22
-18 11 9 16 10 22 1 4 -8 62 -11 186 -11 175 0 179 1 158 18 -12 10 -19 21
-16 25 4 3 -1 6 -11 6 -9 0 -14 5 -11 10 4 7 -3 8 -22 4 -26 -7 -27 -6 -13 11
14 17 13 18 -2 12 -12 -4 -15 -2 -11 9 4 10 -2 17 -16 21 -11 3 -21 9 -21 14
0 5 -6 9 -13 9 -8 0 -19 11 -25 25 -6 14 -16 25 -22 25 -6 0 -8 5 -4 12 4 6 3
8 -4 5 -16 -11 -42 3 -42 23 0 9 -10 25 -22 36 l-23 19 19 -23 c11 -12 17 -25
14 -28 -4 -3 -14 8 -24 25 -10 17 -22 31 -27 31 -4 0 -7 6 -6 13 1 6 1 21 0
32 -2 18 -3 18 -12 -3 -5 -13 -6 -29 -3 -35 3 -7 -5 1 -17 17 -24 30 -35 61
-18 50 5 -3 7 -8 5 -12 -2 -4 2 -13 10 -20 17 -15 18 -11 3 22 -6 13 -21 29
-33 35 -20 11 -20 11 3 5 21 -5 22 -4 10 9 -8 8 -17 13 -21 10 -5 -2 -8 1 -8
6 0 6 -6 10 -12 8 -7 -1 -13 5 -13 13 0 8 -7 21 -15 28 -13 11 -11 11 7 2 12
-5 21 -16 19 -23 -1 -6 -1 -9 1 -4 3 4 9 4 15 1 7 -4 7 0 1 12 -5 11 -8 34 -6
52 1 18 -1 31 -6 27 -5 -3 -8 -18 -5 -33 3 -18 1 -22 -4 -14 -5 8 -13 13 -18
12 -5 -1 -9 3 -10 9 -2 7 -1 8 3 1 7 -15 23 -2 17 15 -4 8 -10 13 -14 10 -5
-3 -12 0 -16 6 -4 8 -3 9 4 5 7 -4 10 3 8 21 -4 25 -1 28 25 29 16 1 29 -1 29
-5 0 -3 4 -12 9 -20 7 -10 13 -11 31 -1 12 7 20 7 16 2 -3 -6 -3 -12 1 -15 5
-2 3 -2 -4 -1 -7 2 -10 -3 -6 -12 7 -18 12 -18 36 3 19 18 20 17 6 -7 -7 -14
-12 -29 -11 -34 2 -5 -4 -6 -13 -2 -9 3 -13 2 -10 -4 11 -19 31 -10 41 18 10
25 10 24 8 -15 -1 -24 2 -46 8 -49 6 -4 8 -2 5 3 -10 17 28 22 48 7 10 -8 14
-14 9 -14 -6 0 -15 5 -21 11 -8 8 -14 5 -23 -11 -10 -18 -14 -19 -28 -8 -15
12 -16 11 -4 -4 13 -17 42 -14 42 3 0 6 10 5 21 -2 18 -9 19 -13 8 -21 -11 -8
-9 -8 5 -4 15 5 17 2 13 -14 -4 -17 -3 -19 9 -9 7 6 12 15 9 18 -2 4 2 8 10 8
7 0 12 -8 10 -18 -2 -12 1 -16 10 -13 13 5 29 -11 30 -31 1 -5 7 -9 14 -7 7 1
15 -7 18 -18 4 -13 11 -19 20 -16 8 3 12 2 9 -3 -3 -4 6 -14 20 -22 14 -7 30
-21 35 -31 6 -10 14 -16 20 -13 5 4 9 1 9 -5 0 -7 13 -24 29 -38 65 -61 91
-82 101 -82 5 0 9 -3 9 -7 -4 -23 3 -30 26 -25 19 3 25 0 25 -13 0 -13 6 -16
23 -13 23 5 47 -12 47 -32 0 -6 5 -8 10 -5 6 4 8 10 6 14 -3 4 1 8 9 8 8 0 12
-4 9 -9 -3 -4 2 -11 11 -15 10 -3 21 0 26 8 7 11 9 9 9 -8 0 -16 4 -21 16 -16
13 5 13 7 2 14 -10 7 -10 9 0 9 7 0 15 -7 18 -15 5 -13 34 -15 195 -15 104 1
191 5 194 10 3 5 -2 16 -11 25 -9 9 -13 19 -9 23 4 4 10 1 12 -6 3 -7 11 -18
18 -26 8 -7 11 -16 8 -20 -4 -3 -1 -6 5 -6 15 0 16 17 1 25 -6 4 -8 13 -5 20
2 7 -7 18 -21 24 -33 15 -24 25 11 12 17 -7 26 -7 26 -1 0 6 -8 10 -17 11 -11
0 -5 6 15 15 37 16 42 34 10 33 -22 0 -22 -1 -3 -9 17 -7 17 -9 3 -9 -18 -1
-42 32 -31 42 3 4 1 12 -5 20 -7 8 -7 18 -2 27 7 10 10 11 10 3 0 -7 7 -13 15
-13 8 0 15 -4 15 -10 0 -5 -4 -10 -10 -10 -5 0 -10 -8 -10 -17 1 -16 2 -16 15
2 8 11 19 26 26 33 8 10 8 13 -2 11 -26 -3 -40 1 -34 10 3 6 -3 8 -14 6 -31
-6 -45 19 -24 41 16 16 16 17 1 12 -9 -4 -19 -1 -22 7 -5 14 20 29 35 20 5 -4
6 1 3 9 -3 9 -10 14 -14 11 -5 -3 -11 -1 -15 5 -3 5 3 10 14 10 12 0 21 5 21
11 0 5 -4 7 -10 4 -6 -3 -7 1 -4 9 7 19 24 21 24 4 0 -7 6 -4 12 6 8 14 8 24
-1 38 -12 20 -4 71 10 62 5 -3 6 2 3 10 -7 19 -24 21 -24 4 0 -6 -3 -8 -7 -5
-9 10 33 48 43 39 4 -4 4 -1 0 6 -4 7 -11 10 -16 7 -13 -8 -20 36 -9 57 7 13
6 18 -3 18 -9 0 -9 3 2 10 12 8 12 10 -3 16 -12 4 -15 13 -11 30 3 13 2 24 -3
24 -6 0 -9 15 -8 33 1 17 -2 42 -6 55 -5 13 -5 21 -1 18 7 -4 8 16 3 44 -1 3
-6 -2 -11 -10 -8 -11 -9 -8 -6 13 3 16 10 34 15 41 7 9 7 16 -2 25 -10 11 -7
12 13 6 22 -7 23 -6 11 9 -12 15 -8 20 12 17 4 0 7 4 7 9 0 6 11 15 24 21 15
7 22 17 19 26 -3 8 0 13 8 11 18 -4 18 26 0 33 -11 4 -10 7 6 11 17 5 21 2 18
-13 -2 -11 1 -19 6 -19 6 0 9 5 7 12 -4 11 25 48 38 48 10 0 52 48 47 54 -3 2
-22 -13 -44 -35 -38 -38 -57 -50 -43 -28 4 8 0 8 -15 0 -17 -10 -20 -9 -15 4
7 18 4 18 -33 5 l-28 -10 30 25 c21 18 24 24 10 19 -11 -4 -25 -11 -32 -16 -8
-7 -10 -3 -6 11 3 12 10 21 15 21 5 0 6 5 2 11 -4 8 -12 3 -21 -12 -13 -23
-13 -23 -8 -2 5 18 2 21 -13 18 -15 -3 -18 2 -16 23 1 15 3 27 4 27 1 0 3 8 5
18 3 14 -1 16 -18 11 -20 -6 -20 -5 3 14 14 12 19 21 13 22 -7 0 -12 3 -12 8
3 19 -2 32 -13 29 -7 -1 -14 8 -16 20 -2 13 -8 20 -16 17 -9 -4 -13 3 -11 20
2 15 -2 24 -8 23 -7 -1 -11 3 -10 9 1 7 -5 10 -15 8 -11 -3 -23 6 -35 28 l-17
33 21 -25 22 -25 -8 25 c-4 14 -11 29 -16 35 -13 13 -11 27 3 19 7 -4 8 -3 4
4 -4 6 -2 21 5 33 10 19 9 21 -5 16 -19 -8 -20 -3 -4 26 10 19 9 20 -3 10 -12
-10 -15 -8 -15 7 0 10 4 16 8 14 4 -3 4 6 -2 20 -7 20 -6 27 7 34 13 8 10 10
-12 10 -15 0 -23 -3 -19 -7 11 -8 14 -42 4 -36 -5 3 -11 18 -15 34 -3 16 -13
32 -22 35 -13 5 -13 4 -4 -7 9 -11 8 -17 -3 -26 -10 -8 -16 -9 -21 -1 -3 5
-11 10 -16 10 -6 0 -8 -4 -5 -9 3 -5 -1 -11 -9 -15 -8 -3 -17 -1 -20 4 -4 6
-12 10 -18 9 -9 0 -9 -2 1 -6 18 -7 15 -21 -9 -34 -17 -9 -20 -8 -14 2 6 9 3
11 -9 6 -11 -4 -15 -3 -11 4 4 6 13 8 20 5 8 -3 11 2 8 15 -5 17 -7 17 -25 -6
-11 -14 -25 -25 -33 -25 -7 0 -15 -3 -18 -7 -2 -5 -2 -2 0 6 2 9 -3 12 -17 8
-18 -5 -19 -3 -8 11 8 10 9 13 1 9 -7 -5 -13 1 -16 15 l-4 23 -2 -23 c0 -13
-6 -20 -11 -17 -6 4 -8 11 -4 16 3 6 -3 13 -15 16 -17 4 -19 9 -10 24 5 11 7
25 3 31 -4 7 -3 8 4 4 8 -5 10 -2 6 8 -3 9 -1 16 5 16 6 0 11 -6 11 -12 0 -9
3 -9 9 1 5 8 7 21 3 29 -4 11 -1 13 7 7 10 -6 11 -3 2 13 -16 31 -14 39 15 46
22 6 24 9 12 23 -9 12 -9 15 0 9 7 -4 12 -1 12 9 0 9 4 13 10 10 6 -3 7 1 4 9
-4 10 -1 16 9 16 8 0 22 12 32 26 9 15 12 23 6 19 -14 -8 -43 13 -35 26 9 15
-3 10 -22 -8 -17 -17 -17 -17 -11 8 8 33 -2 44 -20 21 -11 -15 -12 -13 -3 12
6 16 8 31 5 34 -3 3 -5 1 -5 -5 0 -6 -10 -13 -22 -16 -19 -5 -21 -4 -8 6 16
13 26 42 12 33 -5 -3 -9 8 -10 25 0 16 3 27 7 25 4 -3 16 9 26 25 15 22 26 29
43 26 12 -2 20 -2 17 1 -2 3 1 12 8 20 9 13 9 14 0 8 -7 -4 -13 -5 -13 -2 0 6
56 37 65 36 3 0 7 0 10 0 2 0 1 10 -4 23 -7 18 -5 26 10 35 10 7 19 19 19 27
0 8 5 15 11 15 7 0 9 -10 7 -25 -3 -14 -1 -28 5 -32 5 -3 7 -1 3 5 -3 6 -2 13
4 17 7 4 7 12 0 26 -7 13 -7 19 0 19 5 0 10 -5 10 -11 0 -6 5 -7 13 -2 6 4 15
8 19 8 3 0 9 3 12 8 3 4 3 5 -1 2 -3 -3 -12 3 -20 13 -12 16 -13 16 -7 0 3
-10 1 -18 -5 -18 -6 0 -11 7 -11 15 0 8 -4 15 -10 15 -5 0 -9 -6 -7 -12 1 -8
-8 -13 -20 -12 -14 0 -23 -5 -24 -15 0 -9 -3 -11 -5 -5 -3 8 -21 4 -54 -12
-28 -13 -56 -24 -62 -24 -10 0 -9 -3 1 -9 16 -10 7 -16 -39 -26 -19 -4 -40
-12 -47 -17 -7 -6 -17 -1 -28 14 l-17 23 6 -25 c3 -14 3 -19 0 -12 -3 6 -10
10 -15 7 -5 -4 -6 1 -2 10 7 20 -15 37 -39 29 -20 -6 -25 12 -5 19 6 3 -5 3
-25 1 -21 -2 -38 1 -38 6 0 6 -9 10 -19 10 -11 0 -23 5 -27 12 -4 6 -3 8 3 5
13 -8 14 41 2 64 -5 9 -4 20 2 26 8 8 8 17 0 30 -7 14 -7 23 1 31 8 8 8 12 2
12 -6 0 -11 7 -11 15 0 8 4 12 8 10 4 -3 6 6 5 20 -1 23 -2 24 -14 8 -13 -17
-13 -17 -10 2 2 11 8 23 13 27 6 4 2 8 -7 8 -10 0 -18 4 -18 10 0 5 -3 9 -7 8
-5 0 -16 2 -26 7 -12 5 -15 11 -7 20 7 8 5 12 -5 12 -8 0 -15 -6 -15 -14 0 -7
-4 -13 -10 -13 -5 0 -9 3 -9 8 4 21 -3 32 -20 32 -26 0 -34 15 -22 39 9 17 8
18 -12 14 -19 -4 -20 -3 -4 7 9 6 17 18 17 26 0 9 5 12 13 8 9 -5 9 -4 0 6 -6
7 -9 20 -5 29 5 14 4 14 -12 2 -9 -8 -16 -10 -15 -5 4 21 -2 35 -12 28 -8 -4
-8 0 0 15 8 14 8 21 1 21 -5 0 -10 -5 -10 -12 0 -6 -3 -9 -6 -5 -3 3 -1 13 4
23 11 19 2 42 -33 82 -11 13 -20 29 -21 35 0 7 -2 25 -2 40 -1 16 -6 26 -11
23 -14 -9 -19 16 -10 41 5 14 4 25 -3 29 -7 5 -8 3 -3 -6 5 -9 4 -11 -3 -6 -7
4 -10 22 -6 44 3 24 2 32 -4 24 -7 -11 -10 -10 -16 3 -9 24 -8 27 6 19 7 -5 8
-3 2 7 -4 8 -9 20 -10 27 -2 8 -6 17 -10 20 -4 4 -4 -1 -1 -11 4 -11 3 -16 -3
-12 -6 3 -10 17 -10 31 0 13 -8 32 -18 42 -10 10 -16 24 -14 30 2 7 -1 12 -8
12 -6 0 -9 4 -6 9 4 5 0 12 -6 14 -9 4 -9 6 2 6 10 1 7 6 -8 17 -13 9 -21 22
-18 29 2 7 -4 23 -14 35 -11 12 -22 32 -26 43 -7 22 -15 33 -52 72 -12 14 -22
27 -22 30 1 22 -1 25 -12 19 -7 -4 -8 -3 -4 4 4 6 -1 20 -11 30 -10 10 -19 25
-21 32 -2 8 -12 20 -23 28 -11 7 -16 18 -13 24 4 7 2 8 -4 4 -8 -4 -12 0 -12
11 0 15 -2 16 -10 3 -8 -12 -10 -11 -10 5 0 11 -8 31 -17 44 -12 18 -13 22 -2
16 11 -7 12 -6 2 7 -7 8 -10 18 -6 21 3 4 -3 7 -15 7 -15 0 -20 5 -16 15 4 8
1 15 -5 15 -6 0 -8 7 -5 15 5 11 2 13 -10 9 -12 -4 -15 -2 -10 9 3 8 -1 26
-10 39 -8 13 -16 27 -18 33 -2 5 -7 9 -12 7 -5 -2 -6 3 -3 11 3 7 -4 19 -14
26 -11 6 -17 16 -13 22 3 6 -12 28 -35 50 -22 22 -41 47 -41 55 0 8 -4 13 -9
9 -5 -3 -12 4 -16 15 -4 11 -10 18 -15 15 -5 -3 -12 0 -15 6 -4 5 -13 8 -21 5
-8 -3 -14 0 -14 8 0 7 -7 13 -15 13 -8 0 -15 -5 -15 -10 0 -6 -5 -6 -12 0 -16
11 -27 11 -54 -5 -12 -6 -25 -8 -29 -4 -5 4 -5 -1 -2 -11 6 -15 4 -16 -13 -7
-11 6 -20 7 -20 3 0 -5 -15 -8 -34 -8 -25 0 -32 4 -28 15 3 10 0 9 -10 -3 -7
-10 -18 -18 -23 -17 -29 6 -56 -1 -49 -12 6 -10 4 -10 -8 0 -11 9 -23 10 -42
2 -37 -14 -69 -13 -60 2 5 7 3 8 -7 2 -21 -13 -39 -14 -39 -1 0 7 -4 5 -10 -3
-11 -18 -30 -20 -48 -6 -11 7 -13 5 -10 -8 2 -14 -4 -19 -22 -22 -14 -1 -19 0
-12 2 6 3 10 9 7 14 -3 5 -19 2 -35 -6 -39 -20 -84 -28 -75 -14 3 5 1 10 -4
10 -6 0 -11 7 -11 16 0 8 -5 12 -10 9 -6 -4 -8 -10 -5 -15 3 -5 0 -12 -6 -16
-8 -4 -9 -3 -5 4 5 8 0 12 -13 12 -10 0 -22 -6 -24 -12 -3 -8 -6 -6 -6 4 -1 9
7 22 17 28 15 10 14 11 -5 7 -13 -3 -23 -1 -23 4 0 5 7 9 16 9 11 0 14 5 10
16 -3 9 -6 18 -6 20 0 3 -4 3 -9 0 -5 -3 -8 12 -7 34 0 21 3 34 7 29 4 -6 9
-4 13 6 3 9 3 21 0 27 -3 5 2 16 12 24 18 14 18 15 -3 9 -12 -3 -25 -1 -29 6
-4 7 -3 9 4 6 20 -13 42 5 41 32 -1 21 -2 22 -6 5 -3 -15 -12 -21 -28 -21 -18
0 -21 2 -12 12 9 9 14 10 19 1 7 -10 13 13 9 36 0 4 12 17 27 28 29 24 30 28
10 42 -9 7 -6 8 10 5 16 -4 22 -2 19 7 -3 7 4 18 15 25 11 7 18 15 15 18 -3 3
3 15 14 26 19 21 19 22 2 36 -17 13 -17 13 0 8 15 -6 22 3 18 26 -1 4 9 19 21
32 13 13 36 40 52 60 17 20 36 33 43 30 8 -2 11 0 8 5 -3 6 -1 10 4 10 6 0 11
7 11 15 0 9 6 12 15 9 11 -4 13 -2 9 9 -3 10 2 20 15 27 12 6 21 8 21 4 0 -7
7 1 53 56 10 12 16 24 13 28 -3 3 4 10 16 16 16 8 23 21 24 46 1 19 7 36 13
38 6 2 11 10 11 18 0 8 10 19 22 24 13 5 18 9 11 9 -6 1 -10 9 -8 19 1 9 10
16 18 16 9 -1 16 1 15 5 -2 17 3 25 10 14 5 -9 20 11 43 57 32 66 49 85 49 58
0 -7 7 -2 16 10 8 12 12 27 9 32 -3 6 3 14 15 18 12 4 21 12 21 17 -1 18 10
45 19 45 4 0 7 8 6 17 -2 10 8 26 21 36 12 10 23 25 23 33 0 8 4 14 9 14 17 0
17 35 1 48 -13 10 -12 11 4 5 15 -5 18 -3 13 10 -3 8 -1 18 6 21 9 3 9 5 0 5
-20 1 -15 21 5 21 14 0 15 2 2 10 -12 8 -13 10 -1 10 10 0 7 8 -9 25 -20 21
-21 25 -6 25 9 0 14 5 11 10 -3 6 0 10 7 10 11 0 10 2 0 9 -11 7 -11 9 1 14
12 4 14 0 11 -18 -2 -14 2 -27 10 -32 8 -4 15 -12 15 -18 0 -5 5 -11 12 -14 7
-2 9 1 5 8 -4 6 -1 11 6 12 7 0 0 6 -16 13 -16 7 -25 16 -19 19 5 3 15 2 23
-4 22 -13 29 -11 26 9 -2 11 -11 16 -27 15 -16 -2 -19 0 -9 5 18 8 23 42 6 42
-6 0 -3 5 7 11 14 8 22 8 30 -1 9 -8 8 -10 -3 -5 -11 4 -16 -1 -17 -15 -1 -12
2 -18 9 -14 7 4 8 2 4 -4 -4 -7 -3 -12 1 -12 5 0 17 29 27 65 10 36 23 65 28
65 5 0 7 4 4 9 -3 5 1 14 9 21 12 10 15 10 15 -1 0 -11 2 -11 10 1 5 8 14 16
20 16 5 1 15 2 20 3 6 0 10 5 10 10 0 4 -12 7 -27 5 -24 -3 -23 -2 5 6 18 6
31 14 28 19 -3 4 1 8 9 8 18 0 19 -9 3 -26 -11 -10 -10 -11 4 -6 13 5 15 2 11
-13 -3 -11 0 -29 7 -39 10 -16 11 -16 6 0 -5 15 -3 16 16 6 18 -10 20 -9 15 5
-4 11 -3 15 4 11 14 -9 59 3 59 15 0 5 -6 8 -12 6 -7 -1 -10 -1 -5 2 20 11 27
41 11 56 -13 14 -13 16 0 16 8 0 17 8 20 18 4 14 5 14 4 -3 -1 -46 2 -56 15
-49 6 4 4 -2 -6 -13 -17 -20 -17 -21 4 -26 19 -5 20 -8 9 -22 -7 -8 -11 -18
-8 -21 3 -3 15 10 27 28 11 18 21 27 21 21 0 -7 5 -13 11 -13 5 0 7 5 4 10 -3
6 -2 10 3 10 9 0 18 -15 20 -33 1 -4 8 -15 17 -24 9 -8 14 -22 11 -29 -3 -9 0
-11 11 -7 13 5 14 3 4 -16 -9 -16 -9 -21 0 -19 6 2 14 -3 17 -11 2 -8 0 -11
-6 -7 -16 10 -2 -32 16 -46 9 -8 13 -8 9 -2 -8 13 16 37 26 27 4 -3 7 -1 7 5
0 7 4 12 10 12 5 0 6 -7 3 -17 -4 -11 -3 -14 5 -9 7 4 12 2 12 -3 0 -6 4 -11
10 -11 5 0 7 7 4 15 -4 8 -1 15 5 15 19 0 12 35 -10 48 -15 10 -18 16 -10 26
7 9 6 18 -4 33 -8 11 -11 23 -8 27 3 3 1 6 -6 6 -7 0 -9 5 -6 10 4 6 1 9 -6 8
-7 -2 -17 11 -22 27 -6 17 -16 45 -24 63 -8 18 -11 37 -8 42 3 5 -2 17 -12 27
-10 10 -18 30 -18 45 1 15 -3 24 -7 22 -4 -3 -8 0 -8 5 0 6 5 11 11 11 8 0 8
4 2 13 -21 26 -22 45 -3 50 14 4 18 0 15 -15 -4 -16 -2 -18 10 -8 13 10 15 8
15 -13 0 -29 21 -49 47 -45 12 2 18 -3 17 -14 -1 -10 2 -15 7 -12 5 3 9 1 9
-5 0 -13 83 -2 92 12 4 6 2 15 -5 19 -9 6 -9 8 1 8 10 0 10 5 1 21 -8 15 -8
19 0 15 6 -4 11 0 11 8 0 9 5 16 10 16 7 0 7 6 0 20 -8 14 -8 20 0 20 6 0 9 4
6 8 -2 4 0 14 5 22 8 13 10 13 19 0 6 -10 10 -11 10 -2 0 6 5 12 11 12 5 0 8
-4 5 -8 -2 -4 16 -17 40 -29 25 -12 42 -18 39 -13 -8 13 6 12 25 0 13 -9 13
-10 0 -10 -12 0 -12 -2 -2 -9 17 -11 17 -21 0 -33 -10 -8 -10 -9 2 -5 8 2 15
10 15 18 0 9 11 14 28 14 19 1 26 -3 23 -12 -3 -7 -1 -14 4 -14 6 -1 15 -3 20
-4 6 -1 15 -3 21 -4 5 0 8 -5 4 -10 -3 -5 3 -17 12 -27 10 -10 18 -20 18 -24
0 -4 7 -14 15 -23 39 -43 45 -55 49 -100 1 -5 5 -6 10 -3 5 3 18 -16 30 -42
12 -26 31 -60 42 -77 10 -16 22 -38 25 -47 4 -10 10 -16 14 -13 4 3 11 -6 14
-20 4 -14 11 -25 17 -25 6 0 8 -4 5 -9 -3 -4 8 -23 24 -41 16 -18 36 -47 45
-66 9 -19 20 -34 25 -34 6 0 10 -10 10 -23 0 -13 13 -36 30 -52 16 -15 28 -31
27 -35 -1 -4 26 -37 60 -73 34 -36 59 -68 56 -71 -4 -3 -1 -6 5 -6 13 0 92
-77 92 -91 0 -6 4 -7 10 -4 5 3 10 -1 10 -10 0 -9 15 -31 33 -50 34 -35 125
-134 235 -253 37 -41 69 -79 71 -85 2 -6 14 -20 26 -31 12 -12 35 -43 50 -71
16 -27 32 -52 35 -55 6 -6 28 -43 47 -81 7 -15 19 -32 26 -38 22 -18 70 -8 99
22 14 15 29 27 34 27 4 0 16 8 27 17 11 10 17 13 14 7 -4 -7 3 -11 21 -11 15
0 21 2 14 4 -6 3 -12 9 -12 14 0 4 6 6 14 3 18 -7 56 25 56 48 0 10 4 18 9 18
5 0 8 11 6 25 -1 14 2 25 8 25 6 0 7 3 4 7 -4 3 -2 12 4 20 6 7 8 13 4 13 -4
0 -2 7 5 15 10 12 10 15 0 15 -9 0 -8 5 3 18 10 10 14 22 10 25 -3 4 -2 7 3 7
5 0 10 12 11 27 2 36 25 106 38 115 7 5 6 8 -1 8 -7 0 -9 10 -6 25 2 13 1 33
-3 42 -5 10 -7 21 -7 26 2 7 -14 11 -31 8 -4 -1 -3 8 3 19 6 11 7 20 3 19 -17
-3 -33 1 -32 9 4 21 -4 35 -38 70 -45 46 -69 80 -65 94 1 5 -2 7 -8 3 -5 -3
-10 1 -10 10 0 10 -5 13 -12 9 -7 -4 -8 -3 -4 5 4 6 -2 26 -13 45 -12 18 -21
42 -21 52 0 11 -7 28 -15 38 -8 10 -12 22 -10 26 3 5 -2 24 -10 43 -8 19 -11
37 -8 40 3 4 0 14 -8 23 -13 16 -19 31 -54 124 -9 25 -29 71 -45 102 -16 31
-33 65 -38 75 -44 89 -55 116 -55 129 0 7 -2 12 -5 9 -3 -2 -16 19 -29 47 -13
29 -27 55 -31 58 -26 19 -71 83 -66 92 5 7 1 9 -9 5 -10 -3 -17 -3 -17 2 0 8
-16 27 -71 89 l-29 32 -1970 0 -1970 0 0 -1934z m3006 1773 c9 -15 -11 -16
-41 -3 l-30 12 33 0 c18 -1 35 -5 38 -9z m-239 -141 c-3 -8 -6 -5 -6 6 -1 11
2 17 5 13 3 -3 4 -12 1 -19z m31 -13 c-3 -3 -9 2 -12 12 -6 14 -5 15 5 6 7 -7
10 -15 7 -18z m-658 -330 c0 -8 -4 -15 -10 -15 -5 0 -7 7 -4 15 4 8 8 15 10
15 2 0 4 -7 4 -15z m0 -35 c0 -5 -2 -10 -4 -10 -3 0 -8 5 -11 10 -3 6 -1 10 4
10 6 0 11 -4 11 -10z m-583 -2042 c-2 -27 -19 -42 -28 -26 -9 14 0 40 12 32 5
-3 9 0 9 5 0 6 2 11 5 11 3 0 4 -10 2 -22z m1029 -961 c4 -4 13 -2 21 4 10 9
13 8 13 0 0 -7 4 -9 10 -6 6 4 7 -1 3 -11 -5 -13 -3 -15 8 -9 11 6 11 5 2 -5
-6 -7 -9 -18 -7 -25 9 -22 -84 -42 -116 -25 -9 5 -20 19 -23 30 -3 11 -1 18 4
14 5 -3 9 0 9 6 0 6 5 8 10 5 6 -3 10 1 10 11 0 14 3 14 15 4 13 -11 14 -10 9
3 -6 16 18 19 32 4z m384 -113 c0 -8 -19 -13 -24 -6 -3 5 1 9 9 9 8 0 15 -2
15 -3z m-2930 -48 c0 -2 -8 -10 -17 -17 -16 -13 -17 -12 -4 4 13 16 21 21 21
13z m2181 -106 c7 0 9 -3 6 -6 -10 -10 -37 16 -36 35 0 11 3 9 9 -6 5 -13 15
-23 21 -23z m-57 14 c9 -3 16 -15 16 -25 0 -11 5 -16 13 -13 7 2 23 -9 35 -25
15 -21 18 -29 7 -25 -21 8 -19 -13 3 -25 15 -9 15 -10 -4 -11 -12 0 -24 -8
-28 -17 -3 -10 -9 -24 -12 -31 -3 -7 0 -11 6 -10 7 2 15 -3 17 -10 3 -8 -1
-10 -14 -5 -17 6 -16 4 2 -18 15 -18 16 -20 3 -10 -10 7 -18 9 -18 3 0 -5 -12
-15 -27 -20 -16 -5 -36 -13 -45 -17 -12 -5 -21 2 -32 23 -14 27 -14 31 0 36 8
3 12 11 8 17 -4 8 1 9 17 5 18 -4 16 -2 -6 9 -26 12 -27 20 -2 16 5 -1 6 3 2
9 -3 6 -11 8 -16 5 -5 -4 -14 -3 -20 1 -7 4 -2 11 13 18 19 10 22 19 20 49 -2
22 2 37 8 37 6 0 8 5 5 10 -5 8 -11 7 -21 -1 -12 -10 -13 -9 -8 5 8 21 17 20
39 -4 10 -11 21 -20 25 -20 13 0 20 29 8 36 -7 4 -8 3 -4 -4 4 -7 2 -12 -3
-12 -6 0 -11 7 -11 15 0 17 2 18 24 9z m866 -19 c0 -8 -2 -15 -4 -15 -2 0 -6
7 -10 15 -3 8 -1 15 4 15 6 0 10 -7 10 -15z m-952 -46 c-20 -13 -28 -11 -22 5
3 8 12 12 21 9 12 -5 12 -7 1 -14z m956 -14 c3 -8 1 -15 -4 -15 -6 0 -10 7
-10 15 0 8 2 15 4 15 2 0 6 -7 10 -15z m-940 -18 c-3 -9 -14 -15 -24 -14 -11
1 -16 7 -13 15 4 10 8 11 13 2 5 -8 9 -6 14 6 3 9 9 15 11 12 3 -3 3 -12 -1
-21z m140 -73 c3 -8 2 -12 -4 -9 -6 3 -10 10 -10 16 0 14 7 11 14 -7z m-164
-14 c0 -5 -2 -10 -4 -10 -3 0 -8 5 -11 10 -3 6 -1 10 4 10 6 0 11 -4 11 -10z
m110 -80 c0 -5 -2 -10 -4 -10 -3 0 -8 5 -11 10 -3 6 -1 10 4 10 6 0 11 -4 11
-10z m-25 -10 c3 -5 1 -10 -4 -10 -6 0 -11 5 -11 10 0 6 2 10 4 10 3 0 8 -4
11 -10z m1135 -45 c7 -9 8 -15 2 -15 -5 0 -12 7 -16 15 -3 8 -4 15 -2 15 2 0
9 -7 16 -15z m197 -541 c-3 -3 -12 -4 -19 -1 -8 3 -5 6 6 6 11 1 17 -2 13 -5z
m149 -248 c2 -13 1 -14 -3 -1 -4 13 -8 14 -19 4 -12 -10 -13 -9 -8 5 8 21 28
16 30 -8z m34 -46 c0 -5 -5 -10 -11 -10 -5 0 -7 5 -4 10 3 6 8 10 11 10 2 0 4
-4 4 -10z m30 -34 c0 -2 -9 -6 -20 -9 -11 -3 -18 -1 -14 4 5 9 34 13 34 5z
m-3483 -141 c-4 -8 -2 -17 3 -20 6 -4 10 0 10 7 0 9 3 9 10 -2 6 -10 10 -11
10 -2 0 6 5 12 11 12 8 0 9 -4 0 -13 -6 -8 -8 -16 -5 -20 8 -8 -18 -3 -33 6
-13 8 -17 -3 -14 -30 1 -7 -8 -13 -21 -13 -19 0 -20 2 -8 10 8 5 11 10 5 10
-5 0 -4 4 3 9 12 7 18 24 21 54 1 4 4 7 7 7 3 0 4 -7 1 -15z m-67 -35 c0 -5
-5 -10 -11 -10 -5 0 -7 5 -4 10 3 6 8 10 11 10 2 0 4 -4 4 -10z m23 -5 c-3 -9
-8 -14 -10 -11 -3 3 -2 9 2 15 9 16 15 13 8 -4z m-48 -42 c-5 -10 -7 -21 -7
-25 1 -5 -3 -8 -9 -8 -6 0 -8 6 -5 13 3 6 9 20 12 30 4 10 9 16 12 13 2 -3 1
-13 -3 -23z m305 -8 c0 -8 -4 -15 -9 -15 -5 0 -14 7 -21 15 -10 13 -9 15 9 15
12 0 21 -6 21 -15z m117 -1 c-3 -3 -12 -4 -19 -1 -8 3 -5 6 6 6 11 1 17 -2 13
-5z m-437 -53 c0 -4 -6 -8 -13 -8 -8 0 -14 6 -14 13 0 7 6 10 14 7 7 -3 13 -8
13 -12z m555 10 c3 -5 2 -12 -3 -15 -5 -3 -9 1 -9 9 0 17 3 19 12 6z m-555
-40 c0 -6 -4 -13 -10 -16 -5 -3 -10 1 -10 9 0 9 5 16 10 16 6 0 10 -4 10 -9z
m25 -1 c3 -5 1 -10 -4 -10 -6 0 -11 5 -11 10 0 6 2 10 4 10 3 0 8 -4 11 -10z
m-34 -40 c-13 -11 -31 -19 -40 -19 -12 1 -12 2 3 6 15 4 16 7 5 15 -10 7 -8 8
8 3 12 -3 24 -1 28 5 3 5 9 10 13 10 4 -1 -4 -10 -17 -20z m29 -10 c0 -5 -5
-10 -11 -10 -5 0 -7 5 -4 10 3 6 8 10 11 10 2 0 4 -4 4 -10z m713 -10 c-3 -12
-8 -19 -11 -16 -5 6 5 36 12 36 2 0 2 -9 -1 -20z m25 -25 c-3 -3 -9 2 -12 12
-6 14 -5 15 5 6 7 -7 10 -15 7 -18z m-45 -22 c-7 -2 -19 -2 -25 0 -7 3 -2 5
12 5 14 0 19 -2 13 -5z m13 -31 c-11 -11 -16 -12 -16 -4 0 18 24 43 29 30 2
-5 -4 -17 -13 -26z m253 -1 c10 -7 7 -9 -12 -8 -14 1 -23 5 -20 10 6 9 15 9
32 -2z m-959 -23 c-11 -12 -23 -18 -27 -15 -3 4 -1 7 6 7 7 0 11 6 8 13 -3 7
3 13 14 14 18 2 18 1 -1 -19z m1358 -23 c-3 -3 -9 2 -12 12 -6 14 -5 15 5 6 7
-7 10 -15 7 -18z m29 1 c-3 -8 -1 -17 6 -20 9 -5 9 -7 -1 -12 -6 -3 -9 -10 -6
-16 4 -6 -2 -5 -15 1 -24 13 -29 26 -6 17 9 -3 15 -1 14 7 -2 20 1 37 7 37 3
0 4 -6 1 -14z m586 -42 c7 1 8 1 4 -2 -4 -2 -2 -11 5 -20 9 -12 6 -11 -10 2
-12 11 -22 24 -21 30 0 7 2 7 5 -1 3 -7 11 -11 17 -9z m-508 -23 c3 -5 2 -12
-3 -15 -5 -3 -9 1 -9 9 0 17 3 19 12 6z m138 -6 c-3 -9 -8 -14 -10 -11 -3 3
-2 9 2 15 9 16 15 13 8 -4z m781 -57 c-5 -8 -1 -9 12 -5 18 7 18 6 2 -6 -10
-8 -16 -17 -13 -20 3 -4 2 -5 -2 -2 -10 8 -12 55 -1 49 4 -3 5 -10 2 -16z
m-24 2 c0 -5 -5 -10 -11 -10 -5 0 -7 5 -4 10 3 6 8 10 11 10 2 0 4 -4 4 -10z
m0 -30 c0 -5 -2 -10 -4 -10 -3 0 -8 5 -11 10 -3 6 -1 10 4 10 6 0 11 -4 11
-10z m-20 -30 c0 -5 -5 -10 -11 -10 -5 0 -7 5 -4 10 3 6 8 10 11 10 2 0 4 -4
4 -10z m-973 -52 c-3 -8 -6 -5 -6 6 -1 11 2 17 5 13 3 -3 4 -12 1 -19z m698
-8 c3 -5 1 -10 -4 -10 -6 0 -11 5 -11 10 0 6 2 10 4 10 3 0 8 -4 11 -10z m39
-56 c3 -8 2 -12 -4 -9 -6 3 -10 10 -10 16 0 14 7 11 14 -7z m1516 -81 c0 -7
-7 -10 -16 -6 -11 4 -12 8 -4 13 9 5 9 9 1 14 -6 4 -11 12 -11 19 0 15 29 -25
30 -40z m-2179 -16 c-10 -9 -11 -8 -5 6 3 10 9 15 12 12 3 -3 0 -11 -7 -18z
m64 13 c-3 -5 -14 -10 -23 -9 -14 0 -13 2 3 9 27 11 27 11 20 0z m25 -39 c0
-5 -7 -12 -16 -15 -14 -5 -15 -4 -4 9 14 17 20 19 20 6z m2017 -46 c-15 -16
-22 -11 -13 10 3 9 10 13 16 10 6 -4 5 -11 -3 -20z m-1237 -34 c3 -2 -3 -1
-12 2 -12 4 -18 1 -18 -9 0 -8 -5 -12 -11 -8 -8 5 -8 1 0 -14 15 -29 14 -37
-4 -22 -17 14 -20 50 -5 50 6 0 10 7 10 16 0 16 9 13 40 -15z m1234 -27 c-16
-13 -16 -15 -1 -10 11 3 17 0 17 -10 0 -12 -4 -12 -20 -4 -15 8 -20 8 -20 -1
0 -7 -3 -9 -7 -6 -8 8 26 47 40 47 6 0 2 -7 -9 -16z m-1949 -22 c-3 -3 -12 -7
-21 -8 -11 -2 -12 1 -5 10 6 7 7 17 3 22 -4 4 1 2 11 -5 9 -8 15 -16 12 -19z
m745 -8 c0 -3 -7 -1 -15 6 -8 7 -15 17 -15 22 0 5 7 3 15 -6 8 -8 15 -18 15
-22z m100 12 c0 -3 -4 -8 -10 -11 -5 -3 -10 -1 -10 4 0 6 5 11 10 11 6 0 10
-2 10 -4z m-37 -26 c-3 -11 -7 -20 -9 -20 -2 0 -4 9 -4 20 0 11 4 20 9 20 5 0
7 -9 4 -20z m1170 -8 c-3 -12 -9 -22 -14 -22 -12 0 -11 7 2 32 13 25 20 19 12
-10z m-1117 -7 c-1 -30 -2 -31 -17 -4 -8 15 -8 19 0 15 6 -4 11 -2 11 3 0 6 2
11 4 11 2 0 3 -11 2 -25z m1082 -1 c-12 -12 -17 -13 -23 -3 -5 7 -4 10 2 6 6
-4 14 0 17 9 4 9 9 14 13 10 4 -3 0 -14 -9 -22z m-1158 2 c0 -3 -4 -8 -10 -11
-5 -3 -10 -1 -10 4 0 6 5 11 10 11 6 0 10 -2 10 -4z m97 -41 c0 -8 -4 -12 -9
-9 -5 3 -6 10 -3 15 9 13 12 11 12 -6z m6 -40 c4 -8 3 -16 -1 -19 -4 -3 -9 4
-9 15 -2 23 3 25 10 4z m1062 -66 c11 -16 1 -19 -13 -3 -7 8 -8 14 -3 14 5 0
13 -5 16 -11z"/>
<path d="M2136 2387 c3 -10 9 -15 12 -12 3 3 0 11 -7 18 -10 9 -11 8 -5 -6z"/>
<path d="M2186 2377 c3 -10 9 -15 12 -12 3 3 0 11 -7 18 -10 9 -11 8 -5 -6z"/>
<path d="M2180 2318 c-12 -22 -12 -22 6 -6 10 10 15 20 12 24 -4 3 -12 -5 -18
-18z"/>
<path d="M2145 2290 c3 -5 8 -10 11 -10 2 0 4 5 4 10 0 6 -5 10 -11 10 -5 0
-7 -4 -4 -10z"/>
<path d="M2145 2251 c-6 -11 13 -26 22 -17 4 3 1 6 -6 6 -7 0 -9 5 -6 10 3 6
4 10 1 10 -3 0 -7 -4 -11 -9z"/>
<path d="M2090 2238 c0 -11 12 -10 30 2 12 7 10 9 -8 7 -12 0 -22 -5 -22 -9z"/>
<path d="M2105 2220 c-8 -13 5 -13 25 0 13 8 13 10 -2 10 -9 0 -20 -4 -23 -10z"/>
<path d="M2490 5839 c0 -5 5 -7 10 -4 6 3 10 8 10 11 0 2 -4 4 -10 4 -5 0 -10
-5 -10 -11z"/>
<path d="M2557 5836 c-4 -10 -5 -21 -2 -24 9 -9 17 6 13 25 -3 17 -4 17 -11
-1z"/>
<path d="M2345 5820 c-3 -5 -1 -10 4 -10 6 0 11 5 11 10 0 6 -2 10 -4 10 -3 0
-8 -4 -11 -10z"/>
<path d="M2765 5790 c3 -5 8 -10 11 -10 2 0 4 5 4 10 0 6 -5 10 -11 10 -5 0
-7 -4 -4 -10z"/>
<path d="M2168 5593 c7 -3 16 -2 19 1 4 3 -2 6 -13 5 -11 0 -14 -3 -6 -6z"/>
<path d="M3215 5106 c-23 -17 -27 -37 -9 -54 12 -10 14 -10 14 3 0 8 4 15 9
15 5 0 8 11 7 25 0 14 -1 25 -2 25 0 0 -9 -6 -19 -14z m5 -26 c0 -5 -2 -10 -4
-10 -3 0 -8 5 -11 10 -3 6 -1 10 4 10 6 0 11 -4 11 -10z"/>
<path d="M3251 5081 c-1 -23 0 -24 19 -6 23 20 28 34 6 16 -11 -9 -15 -9 -19
1 -3 7 -6 2 -6 -11z"/>
<path d="M3163 5084 c10 -10 -18 -32 -39 -31 -10 1 -18 -3 -17 -8 1 -6 -17
-11 -40 -13 -81 -4 -87 -5 -87 -13 0 -5 -6 -9 -13 -9 -7 0 -24 -13 -39 -30
-14 -16 -23 -30 -20 -30 3 0 -3 -6 -13 -14 -11 -8 -24 -12 -28 -9 -5 3 -21 -9
-37 -27 -15 -17 -31 -31 -34 -31 -14 2 -142 -65 -154 -81 -7 -10 -20 -18 -28
-18 -8 0 -12 -4 -9 -10 3 -5 1 -10 -6 -10 -7 0 -20 -7 -30 -16 -14 -13 -15
-21 -7 -47 5 -18 10 -40 10 -49 -1 -10 6 -18 14 -18 8 0 14 -4 14 -9 0 -18 74
20 107 54 17 18 34 31 36 28 9 -9 48 8 41 18 -3 5 -2 8 3 7 12 -4 67 18 84 33
19 18 49 37 77 49 12 5 22 14 22 20 0 5 6 10 14 10 7 0 33 18 57 40 24 22 47
40 51 40 5 0 8 8 8 18 0 13 2 14 9 3 7 -11 10 -9 15 7 4 11 14 23 22 26 11 4
12 10 5 25 -9 17 -8 19 12 17 18 -2 23 2 22 20 0 12 -3 25 -7 29 -4 4 -4 13
-1 21 3 8 -1 14 -8 14 -7 0 -10 -3 -6 -6z"/>
<path d="M3160 4827 c0 -6 -3 -7 -6 -4 -4 3 -15 2 -25 -3 -9 -6 -35 -12 -56
-16 -21 -3 -44 -13 -50 -22 -7 -9 -13 -12 -13 -7 0 4 -8 1 -18 -8 -10 -9 -31
-22 -48 -29 -25 -11 -98 -84 -155 -154 -16 -20 -30 -52 -26 -57 1 -2 -6 -12
-16 -22 -15 -14 -16 -20 -5 -26 11 -7 11 -9 0 -9 -7 0 -10 -4 -7 -10 3 -5 2
-10 -4 -10 -17 0 -18 -44 -2 -73 9 -15 21 -25 27 -23 7 3 10 -3 7 -14 -3 -10
0 -21 6 -24 6 -4 11 -16 11 -27 0 -11 7 -27 15 -35 8 -9 15 -12 15 -8 0 3 7 1
15 -6 8 -6 19 -9 25 -5 5 3 10 1 10 -5 0 -6 5 -8 11 -4 6 3 15 0 20 -7 7 -11
9 -10 9 4 0 10 5 15 11 12 6 -4 17 1 24 11 13 18 14 18 9 -2 -3 -12 0 -25 7
-29 8 -6 10 -4 4 5 -6 10 -4 12 8 7 17 -6 21 2 18 33 -2 13 -1 13 9 0 9 -13
12 -13 24 2 7 10 15 16 18 13 2 -3 5 1 5 9 0 9 -6 12 -16 8 -14 -5 -14 -3 -3
11 8 8 20 13 28 10 8 -3 14 1 14 9 0 7 9 20 20 28 15 11 16 16 7 23 -8 6 -7 7
4 4 26 -8 149 114 149 147 0 16 -7 29 -17 33 -9 4 -28 16 -40 27 -27 23 -29
76 -6 113 7 12 13 33 13 45 0 24 33 61 45 50 7 -7 25 17 25 33 0 6 -4 4 -9 -4
-7 -11 -11 -10 -20 5 -6 12 -11 14 -11 5 0 -9 -4 -10 -12 -4 -17 13 -48 13
-48 0z"/>
<path d="M1366 4432 c-2 -4 4 -9 15 -9 10 -1 19 2 19 8 0 11 -27 12 -34 1z"/>
<path d="M1344 4269 c-3 -6 -1 -15 6 -19 10 -6 8 -9 -6 -13 -17 -4 -17 -5 -1
-6 11 -1 15 -6 11 -13 -4 -7 -3 -8 5 -4 6 4 9 11 6 16 -3 4 1 11 7 13 10 4 10
6 0 6 -7 1 -11 5 -7 10 3 5 1 12 -4 15 -5 4 -13 1 -17 -5z"/>
<path d="M4572 3628 c6 -21 16 -38 21 -38 5 0 6 -8 3 -17 -4 -9 -1 -20 6 -25
10 -6 10 -8 -1 -8 -11 0 -11 -3 -1 -15 6 -8 9 -19 5 -25 -3 -5 -1 -10 5 -10 7
0 10 -7 6 -15 -3 -8 -1 -15 4 -15 6 0 10 -5 10 -11 0 -5 -5 -7 -10 -4 -6 3 -1
-10 11 -29 11 -20 22 -48 24 -63 1 -15 7 -29 13 -31 5 -1 7 -12 4 -24 -3 -14
-1 -19 6 -14 8 5 10 2 6 -8 -4 -9 -1 -16 6 -16 8 0 11 -9 8 -25 -3 -13 -1 -22
3 -19 9 5 11 0 13 -28 1 -7 9 -19 18 -26 9 -7 15 -19 11 -27 -3 -9 0 -22 7
-30 7 -8 9 -22 6 -31 -5 -13 -2 -15 20 -10 23 6 25 4 19 -16 -5 -20 -4 -20 5
-6 8 12 8 24 1 37 -6 11 -9 33 -7 50 2 17 -2 32 -8 35 -8 3 -8 7 0 13 19 14
26 63 10 69 -8 3 -13 16 -11 29 1 14 -2 22 -6 19 -5 -3 -10 4 -10 15 -2 37 -4
40 -22 62 -10 11 -16 23 -13 26 4 5 -2 15 -31 48 -7 7 -10 20 -7 28 6 17 -40
95 -61 104 -8 3 -13 8 -11 12 7 12 -14 53 -26 48 -7 -2 -18 3 -25 12 -10 13
-10 8 -1 -21z m228 -402 c0 -2 -7 -7 -16 -10 -8 -3 -12 -2 -9 4 6 10 25 14 25
6z m-26 -111 c3 -8 1 -15 -3 -15 -5 0 -11 7 -15 15 -3 8 -1 15 3 15 5 0 11 -7
15 -15z"/>
<path d="M4765 3040 c-3 -5 -1 -10 4 -10 6 0 11 5 11 10 0 6 -2 10 -4 10 -3 0
-8 -4 -11 -10z"/>
<path d="M4774 3000 c0 -13 4 -16 10 -10 7 7 7 13 0 20 -6 6 -10 3 -10 -10z"/>
<path d="M2805 2960 c3 -5 8 -10 11 -10 2 0 4 5 4 10 0 6 -5 10 -11 10 -5 0
-7 -4 -4 -10z"/>
<path d="M4776 2942 c-3 -5 1 -9 9 -9 8 0 12 4 9 9 -3 4 -7 8 -9 8 -2 0 -6 -4
-9 -8z"/>
<path d="M4780 2886 c0 -8 7 -17 16 -20 23 -9 24 -4 2 17 -14 13 -18 14 -18 3z"/>
<path d="M4780 2840 c-10 -6 -11 -10 -3 -10 9 0 10 -7 3 -24 -5 -13 -6 -27 -3
-30 4 -3 1 -6 -5 -6 -6 0 -9 -6 -6 -14 3 -8 12 -12 20 -9 8 3 12 8 10 11 -3 3
2 11 12 19 16 12 16 13 -1 7 -21 -7 -20 15 1 31 19 16 -7 38 -28 25z"/>
<path d="M4787 2734 c-8 -8 3 -34 15 -34 7 0 6 5 -1 13 -6 8 -8 17 -4 20 3 4
4 7 1 7 -2 0 -7 -3 -11 -6z"/>
<path d="M4764 2454 c-10 -8 -13 -13 -6 -9 8 4 12 -3 12 -24 0 -17 -4 -31 -10
-31 -5 0 -7 -7 -3 -16 5 -13 7 -13 14 -2 6 9 9 2 9 -19 0 -41 16 -83 38 -100
14 -11 14 -12 1 -8 -9 4 -16 0 -16 -9 0 -8 6 -12 14 -9 8 3 13 -2 13 -14 0
-11 3 -23 8 -27 7 -7 8 -11 11 -37 0 -5 6 -7 13 -3 7 5 8 3 3 -6 -5 -8 -2 -17
7 -24 9 -7 18 -25 20 -41 1 -17 10 -35 18 -41 8 -7 15 -22 16 -35 1 -13 6 -35
12 -49 5 -14 8 -28 5 -32 -2 -4 2 -5 10 -2 8 3 18 0 23 -7 4 -8 3 -10 -5 -5
-8 5 -11 1 -9 -16 4 -30 17 -50 28 -43 4 3 10 -2 13 -9 3 -8 2 -16 -3 -18 -6
-2 -3 -16 5 -32 9 -16 13 -36 10 -43 -2 -8 -1 -12 4 -9 5 3 11 -1 15 -9 3 -8
0 -15 -6 -15 -7 0 -7 -4 1 -14 7 -8 10 -26 7 -40 -3 -16 0 -26 7 -26 8 0 8 -3
-1 -9 -17 -10 -15 -21 6 -44 15 -17 15 -17 -1 -11 -15 5 -16 3 -9 -17 5 -13 6
-33 2 -44 -4 -12 -3 -23 4 -27 8 -5 7 -14 -3 -30 -12 -21 -12 -22 2 -8 9 8 18
29 20 45 3 17 9 29 14 28 5 -1 9 8 10 20 0 12 3 36 7 52 15 62 16 88 3 103 -9
13 -9 14 1 8 14 -9 15 4 3 37 -5 13 -6 30 -1 37 5 8 2 23 -8 39 -11 16 -12 22
-4 17 11 -6 12 -1 7 25 -3 19 -6 41 -6 49 -1 8 -3 22 -6 30 -7 18 -12 37 -17
65 -7 36 -28 85 -37 85 -5 0 -9 9 -9 20 0 11 -15 45 -32 76 -18 30 -39 65 -45
77 -7 12 -13 18 -13 12 0 -5 -12 8 -27 30 -14 22 -37 53 -50 69 -13 16 -22 35
-19 42 3 8 -1 14 -10 14 -8 0 -13 4 -10 9 4 5 -4 7 -16 4 -15 -3 -19 -2 -11 4
7 5 9 14 4 21 -5 9 -12 8 -27 -4z m61 -174 c3 -6 -1 -7 -9 -4 -18 7 -21 14 -7
14 6 0 13 -4 16 -10z m152 -346 c-3 -3 -12 -4 -19 -1 -8 3 -5 6 6 6 11 1 17
-2 13 -5z m13 -54 c0 -5 -2 -10 -4 -10 -3 0 -8 5 -11 10 -3 6 -1 10 4 10 6 0
11 -4 11 -10z m84 -339 c3 -5 -1 -14 -8 -20 -12 -10 -14 -9 -11 6 2 10 4 19 4
21 2 5 10 2 15 -7z"/>
<path d="M4905 2000 c3 -5 8 -10 11 -10 2 0 4 5 4 10 0 6 -5 10 -11 10 -5 0
-7 -4 -4 -10z"/>
<path d="M150 1810 c-9 -6 -10 -10 -3 -10 6 0 15 5 18 10 8 12 4 12 -15 0z"/>
<path d="M3266 1692 c-3 -5 1 -9 9 -9 8 0 12 4 9 9 -3 4 -7 8 -9 8 -2 0 -6 -4
-9 -8z"/>
<path d="M3573 1685 c0 -8 4 -12 9 -9 5 3 6 10 3 15 -9 13 -12 11 -12 -6z"/>
<path d="M4360 1484 c0 -8 -4 -12 -10 -9 -6 4 -10 -6 -11 -22 0 -24 -1 -25 -8
-8 -5 11 -7 23 -5 26 2 3 -2 6 -9 6 -7 0 -13 -8 -13 -18 0 -10 4 -15 9 -12 5
3 8 0 6 -6 -3 -7 -8 -12 -13 -11 -5 1 -17 -12 -27 -29 -10 -17 -24 -31 -31
-31 -6 0 -8 -3 -5 -7 4 -3 -5 -17 -19 -30 -14 -12 -20 -23 -13 -23 6 0 8 -7 5
-16 -11 -28 3 -32 39 -14 38 19 78 63 68 74 -3 3 -1 6 5 6 7 0 12 5 12 11 0
15 26 39 34 32 6 -6 10 12 7 34 -1 7 3 22 9 33 9 16 8 19 -6 13 -12 -4 -15 -3
-10 5 4 7 2 12 -3 12 -6 0 -11 -7 -11 -16z"/>
<path d="M4245 1390 c4 -6 11 -8 16 -5 14 9 11 15 -7 15 -8 0 -12 -5 -9 -10z"/>
<path d="M4035 1240 c-3 -5 -1 -10 4 -10 6 0 11 5 11 10 0 6 -2 10 -4 10 -3 0
-8 -4 -11 -10z"/>
<path d="M4089 1230 c22 -19 41 -19 41 0 0 4 -9 6 -20 3 -11 -3 -20 0 -20 6 0
6 -6 11 -12 11 -7 -1 -2 -9 11 -20z"/>
<path d="M4065 1208 c5 -18 3 -28 -4 -28 -6 0 -11 8 -11 18 0 14 -2 15 -10 2
-6 -10 -10 -11 -10 -2 0 6 -5 12 -11 12 -8 0 -8 -4 -1 -12 6 -7 10 -17 10 -21
0 -5 4 -12 8 -15 4 -4 4 -2 0 5 -5 9 2 11 23 8 25 -3 29 0 26 18 -3 11 -9 25
-15 31 -8 8 -10 3 -5 -16z"/>
<path d="M4145 1221 c-3 -5 -2 -12 3 -15 5 -3 9 1 9 9 0 17 -3 19 -12 6z"/>
<path d="M3944 1146 c10 -8 16 -19 13 -23 -3 -5 3 -9 13 -9 15 0 16 3 8 14 -6
7 -21 18 -32 23 -20 10 -20 9 -2 -5z"/>
<path d="M4007 1153 c-13 -12 -7 -31 8 -29 20 3 44 26 27 26 -7 0 -12 -5 -12
-11 0 -5 -5 -7 -10 -4 -6 4 -8 11 -5 16 7 10 1 12 -8 2z"/>
<path d="M230 1036 c0 -2 7 -7 16 -10 8 -3 12 -2 9 4 -6 10 -25 14 -25 6z"/>
<path d="M290 1025 c0 -2 6 -8 13 -14 10 -8 14 -7 14 2 0 8 -6 14 -14 14 -7 0
-13 -1 -13 -2z"/>
<path d="M140 1016 c0 -2 7 -7 16 -10 8 -3 12 -2 9 4 -6 10 -25 14 -25 6z"/>
<path d="M480 969 c-7 -11 -9 -23 -6 -27 3 -3 6 0 6 6 0 6 7 18 16 26 8 9 11
16 5 16 -6 0 -15 -9 -21 -21z"/>
<path d="M637 923 c-10 -9 -9 -23 1 -23 5 0 9 7 9 15 0 17 -1 18 -10 8z"/>
<path d="M893 893 c0 -7 4 -13 8 -13 4 0 9 6 12 13 3 8 0 14 -7 14 -7 0 -13
-6 -13 -14z"/>
<path d="M1765 900 c-3 -5 -1 -11 4 -15 6 -3 8 -12 5 -19 -3 -8 0 -17 7 -22 8
-4 10 -3 5 4 -4 6 -2 20 3 31 8 14 7 20 -4 25 -8 3 -17 1 -20 -4z"/>
<path d="M716 851 c-3 -5 1 -14 9 -21 10 -9 15 -9 15 -1 0 6 -5 11 -11 11 -5
0 -7 5 -4 10 3 6 4 10 1 10 -3 0 -7 -4 -10 -9z"/>
<path d="M170 841 c0 -6 4 -13 10 -16 6 -3 7 1 4 9 -7 18 -14 21 -14 7z"/>
<path d="M4808 813 c7 -3 16 -2 19 1 4 3 -2 6 -13 5 -11 0 -14 -3 -6 -6z"/>
<path d="M159 794 c-8 -10 -27 -25 -42 -34 l-28 -17 25 -16 c21 -14 25 -14 30
-2 3 8 12 12 21 9 13 -5 14 -2 5 22 -8 20 -8 29 2 35 7 4 10 11 7 14 -4 3 -12
-2 -20 -11z m1 -28 c0 -2 -8 -10 -17 -17 -16 -13 -17 -12 -4 4 13 16 21 21 21
13z"/>
<path d="M767 803 c-4 -3 -7 -11 -7 -17 0 -6 5 -5 12 2 6 6 9 14 7 17 -3 3 -9
2 -12 -2z"/>
<path d="M4798 787 c-15 -12 -15 -14 0 -23 14 -9 14 -11 -2 -17 -10 -4 -15 -3
-11 3 3 6 1 10 -5 10 -6 0 -13 -13 -16 -30 -5 -22 -12 -30 -28 -30 -17 0 -18
-2 -6 -10 10 -6 11 -10 3 -10 -7 0 -12 -6 -10 -12 1 -7 -4 -12 -11 -10 -8 1
-11 -2 -7 -8 3 -5 -1 -13 -10 -16 -11 -4 -13 -9 -6 -13 7 -5 6 -14 -5 -29 -8
-12 -20 -20 -25 -16 -5 3 -9 2 -8 -3 3 -11 -17 -54 -35 -77 -9 -11 -20 -15
-28 -10 -10 6 -11 5 -1 -7 10 -12 8 -20 -11 -40 -13 -14 -27 -35 -30 -47 -4
-12 -12 -20 -17 -16 -12 7 -7 -18 6 -29 6 -5 4 -7 -5 -4 -9 2 -21 -8 -30 -27
-11 -20 -22 -30 -35 -29 -20 1 -20 1 0 -14 20 -15 20 -15 -2 -10 -19 4 -21 2
-13 -13 7 -13 6 -21 -2 -26 -6 -4 -9 -3 -6 2 3 5 0 15 -8 22 -12 11 -14 8 -12
-20 2 -22 -1 -32 -9 -30 -7 1 -13 -3 -13 -9 0 -5 -5 -7 -11 -3 -8 4 -9 -1 -4
-16 6 -20 5 -21 -8 -9 -8 8 -12 19 -9 24 3 6 -4 2 -16 -8 -11 -11 -18 -25 -16
-32 3 -7 -2 -15 -10 -18 -11 -4 -13 -1 -9 11 6 15 5 15 -10 3 -9 -7 -24 -11
-32 -7 -11 4 -14 2 -9 -6 5 -8 2 -9 -10 -5 -14 6 -17 3 -12 -9 5 -14 4 -15 -9
-4 -11 9 -15 9 -15 1 0 -7 -5 -9 -10 -6 -6 4 -7 11 -4 17 4 7 2 8 -4 4 -7 -4
-12 -15 -12 -24 0 -12 -3 -13 -12 -4 -15 15 -74 16 -83 2 -4 -7 -12 -7 -25 0
-19 10 -30 -4 -30 -41 0 -10 -4 -19 -9 -19 -5 0 -7 10 -5 23 2 12 2 16 -2 9
-3 -6 -10 -10 -14 -7 -16 10 -20 -13 -5 -28 12 -13 12 -16 0 -20 -7 -3 -15 -1
-17 5 -4 12 -28 2 -28 -12 0 -4 109 -9 243 -9 l242 -2 20 33 c11 17 26 42 33
55 7 13 18 23 23 23 6 0 7 5 4 10 -3 6 -2 10 3 10 5 0 17 16 27 35 11 19 21
32 23 30 13 -12 126 176 134 222 2 10 6 20 10 23 4 3 9 19 12 35 2 17 5 32 6
35 1 3 2 8 1 13 0 4 4 7 11 7 6 0 8 3 5 6 -3 4 -2 16 4 27 8 14 8 18 -1 12 -7
-4 -5 6 4 24 9 17 16 32 16 33 -1 2 1 10 4 18 3 8 7 26 9 40 1 14 8 35 15 47
9 16 9 24 1 29 -9 5 -6 11 6 21 11 7 15 13 9 13 -5 0 -17 -6 -26 -13z m-691
-709 c-3 -8 -6 -5 -6 6 -1 11 2 17 5 13 3 -3 4 -12 1 -19z"/>
<path d="M860 750 c-9 -6 -10 -10 -3 -10 6 0 15 5 18 10 8 12 4 12 -15 0z"/>
<path d="M68 723 c7 -3 16 -2 19 1 4 3 -2 6 -13 5 -11 0 -14 -3 -6 -6z"/>
<path d="M103 703 c-7 -3 -13 -12 -13 -21 1 -15 2 -15 14 1 8 10 17 14 20 8 3
-5 0 -12 -6 -14 -10 -4 -9 -8 2 -16 12 -9 11 -11 -10 -12 -23 -1 -22 -2 5 -8
17 -4 32 -3 33 1 2 4 11 8 20 8 15 0 15 2 2 10 -8 5 -10 10 -5 10 6 0 3 5 -5
10 -13 8 -12 10 4 10 11 0 17 3 13 6 -8 9 -59 13 -74 7z"/>
<path d="M1524 692 c3 -5 0 -12 -6 -15 -7 -2 -10 -7 -7 -11 3 -4 12 0 18 8 9
11 9 16 0 22 -7 4 -9 3 -5 -4z"/>
<path d="M1529 653 c-8 -9 -9 -14 -2 -10 6 4 13 1 16 -5 3 -7 4 -3 4 10 -1 26
-1 26 -18 5z"/>
<path d="M156 631 c-3 -4 -10 -20 -15 -35 -9 -21 -8 -26 5 -26 9 0 12 5 8 12
-5 7 -3 8 6 3 10 -6 9 -11 -5 -21 -10 -7 -15 -20 -12 -29 4 -8 1 -15 -6 -15
-7 0 -4 -5 6 -11 9 -6 14 -15 11 -21 -5 -7 -2 -8 6 -3 12 7 30 -10 30 -30 0
-5 -4 -3 -10 5 -5 8 -12 11 -15 8 -4 -4 -3 -13 1 -20 12 -17 12 -31 2 -44 -6
-8 -3 -11 9 -10 12 1 19 -7 21 -24 2 -19 1 -22 -7 -10 -8 12 -10 11 -8 -7 0
-12 4 -20 8 -17 4 2 6 -12 4 -31 -3 -30 0 -35 18 -36 18 -1 19 -2 4 -6 -12 -3
-16 -10 -13 -20 5 -13 4 -14 -9 -3 -8 7 -15 8 -15 2 0 -5 7 -15 15 -22 13 -11
13 -15 3 -21 -10 -7 -9 -9 4 -9 11 0 15 -6 11 -21 -4 -12 0 -25 8 -31 10 -6 7
-8 -11 -3 -22 5 -23 4 -9 -7 11 -9 14 -19 8 -33 -11 -29 -11 -47 1 -40 6 4 7
-6 4 -25 l-6 -30 76 0 76 0 -8 33 c-3 17 -7 44 -7 58 0 19 -4 25 -15 21 -13
-5 -13 -4 0 13 8 10 10 16 3 12 -14 -9 -26 23 -17 47 4 9 1 16 -6 16 -7 0 -10
7 -6 16 3 8 2 12 -4 9 -6 -3 -10 1 -10 10 0 10 5 13 12 9 7 -4 8 -3 4 4 -4 7
-14 12 -22 12 -8 0 -12 5 -9 10 3 6 1 10 -4 10 -6 0 -11 5 -11 11 0 5 5 7 10
4 6 -3 10 1 10 9 0 9 -5 16 -12 16 -6 0 -8 3 -5 7 4 3 2 12 -4 20 -9 10 -8 13
5 13 10 0 14 5 11 10 -4 6 -11 8 -16 5 -5 -3 -6 1 -3 9 3 8 -1 29 -9 46 -11
20 -12 30 -4 30 6 0 1 7 -11 16 -12 8 -22 21 -22 27 0 7 4 6 10 -3 6 -9 10
-10 10 -3 0 6 -5 15 -11 19 -8 4 -7 9 2 16 10 7 4 8 -16 4 -22 -5 -26 -4 -15
4 14 9 7 15 -15 10 -5 -1 -4 5 4 12 11 10 14 10 18 1 3 -7 9 -13 14 -13 4 0 5
7 2 17 -5 12 -3 14 7 8 8 -5 11 -3 9 4 -3 7 -7 11 -11 9 -3 -2 -18 9 -31 24
-14 16 -28 24 -31 19z m19 -129 c-3 -3 -11 0 -18 7 -9 10 -8 11 6 5 10 -3 15
-9 12 -12z m62 -84 c-3 -8 -6 -5 -6 6 -1 11 2 17 5 13 3 -3 4 -12 1 -19z m-22
-10 c6 -4 2 -8 -7 -8 -10 0 -18 7 -18 17 0 9 3 12 8 7 4 -5 12 -12 17 -16z
m25 -38 c0 -5 -5 -10 -11 -10 -5 0 -7 5 -4 10 3 6 8 10 11 10 2 0 4 -4 4 -10z"/>
<path d="M180 631 c0 -5 7 -11 14 -14 10 -4 13 -1 9 9 -6 15 -23 19 -23 5z"/>
<path d="M106 622 c-2 -4 4 -8 15 -8 10 0 19 4 19 8 0 4 -6 8 -14 8 -8 0 -17
-4 -20 -8z"/>
<path d="M2496 582 c-4 -6 -3 -20 3 -29 9 -17 10 -17 17 1 7 17 8 17 19 -5 7
-13 11 -30 8 -38 -4 -13 -3 -13 5 -2 5 7 14 11 19 8 5 -3 10 0 10 7 0 8 -6 12
-12 10 -6 -3 -17 7 -23 21 -7 14 -16 24 -21 21 -5 -4 -11 -1 -13 6 -3 9 -6 9
-12 0z"/>
<path d="M1515 570 c3 -5 8 -10 11 -10 2 0 4 5 4 10 0 6 -5 10 -11 10 -5 0 -7
-4 -4 -10z"/>
<path d="M2155 570 c-3 -5 -1 -10 4 -10 6 0 11 5 11 10 0 6 -2 10 -4 10 -3 0
-8 -4 -11 -10z"/>
<path d="M1560 539 c0 -5 9 -9 19 -9 11 0 22 -6 24 -12 4 -10 6 -10 6 -1 1 13
-16 26 -36 29 -7 1 -13 -2 -13 -7z"/>
<path d="M1642 483 c-18 -4 -21 -9 -16 -25 4 -14 2 -18 -5 -14 -6 4 -11 2 -11
-4 0 -6 8 -10 18 -8 9 2 16 11 16 21 -2 20 12 23 19 5 2 -8 8 -9 13 -4 5 5 4
11 -4 13 -6 3 -10 9 -6 14 3 5 4 8 2 8 -2 -1 -13 -4 -26 -6z"/>
<path d="M2561 471 c-7 -5 -10 -14 -7 -20 9 -13 33 -15 40 -2 4 5 -4 7 -16 3
-21 -5 -22 -4 -9 11 15 19 13 21 -8 8z"/>
<path d="M1650 430 c0 -5 7 -7 15 -4 8 4 15 8 15 10 0 2 -7 4 -15 4 -8 0 -15
-4 -15 -10z"/>
<path d="M2256 365 c3 -8 10 -15 14 -15 5 0 10 -10 12 -22 3 -22 4 -22 9 -3 4
14 -1 26 -17 38 -19 14 -23 15 -18 2z"/>
<path d="M1686 348 c3 -5 10 -6 15 -3 13 9 11 12 -6 12 -8 0 -12 -4 -9 -9z"/>
<path d="M3732 285 c4 -4 3 -14 -4 -22 -6 -7 -9 -15 -7 -18 3 -2 10 4 17 15 9
15 9 21 -1 26 -6 4 -9 4 -5 -1z"/>
<path d="M2426 184 c-4 -10 -1 -14 6 -12 15 5 23 28 10 28 -5 0 -13 -7 -16
-16z"/>
<path d="M1735 180 c3 -5 8 -10 11 -10 2 0 4 5 4 10 0 6 -5 10 -11 10 -5 0 -7
-4 -4 -10z"/>
<path d="M2408 155 c-4 -4 5 -18 20 -32 18 -16 21 -23 10 -19 -10 3 -18 1 -18
-5 0 -21 33 -3 35 19 1 12 -3 21 -9 19 -6 -2 -16 3 -21 10 -6 8 -14 11 -17 8z"/>
<path d="M1400 131 c0 -6 4 -13 10 -16 6 -3 7 1 4 9 -7 18 -14 21 -14 7z"/>
<path d="M2478 123 c7 -3 16 -2 19 1 4 3 -2 6 -13 5 -11 0 -14 -3 -6 -6z"/>
<path d="M2513 110 c-13 -5 -23 -15 -23 -22 0 -10 -2 -10 -9 1 -7 11 -10 11
-17 0 -20 -33 -10 -50 31 -56 15 -2 17 -1 6 6 -17 11 -7 61 14 61 7 0 17 5 20
10 7 12 7 12 -22 0z m-33 -50 c0 -11 -2 -20 -4 -20 -2 0 -6 9 -9 20 -3 11 -1
20 4 20 5 0 9 -9 9 -20z"/>
<path d="M3977 95 c-4 -8 -3 -16 1 -19 4 -3 9 4 9 15 2 23 -3 25 -10 4z"/>
<path d="M3920 79 c0 -5 5 -7 10 -4 6 3 10 8 10 11 0 2 -4 4 -10 4 -5 0 -10
-5 -10 -11z"/>
<path d="M3790 60 c0 -5 7 -10 16 -10 8 0 12 5 9 10 -3 6 -10 10 -16 10 -5 0
-9 -4 -9 -10z"/>
<path d="M3750 41 c0 -6 4 -13 10 -16 6 -3 7 1 4 9 -7 18 -14 21 -14 7z"/>
<path d="M3895 40 c-3 -5 -1 -10 4 -10 6 0 11 5 11 10 0 6 -2 10 -4 10 -3 0
-8 -4 -11 -10z"/>
<path d="M2440 19 c0 -5 5 -7 10 -4 6 3 10 8 10 11 0 2 -4 4 -10 4 -5 0 -10
-5 -10 -11z"/>
<path d="M3801 14 c0 -11 3 -14 6 -6 3 7 2 16 -1 19 -3 4 -6 -2 -5 -13z"/>
<path d="M2475 10 c3 -5 8 -10 11 -10 2 0 4 5 4 10 0 6 -5 10 -11 10 -5 0 -7
-4 -4 -10z"/>
</g>
</svg>
